<mxfile host="app.diagrams.net" agent="Mozilla/5.0 (Windows NT 10.0; Win64; x64) AppleWebKit/537.36 (KHTML, like Gecko) Chrome/132.0.0.0 Safari/537.36" version="26.0.10">
  <diagram name="Page-1" id="FlKXEsf6NecXJLn8cm3T">
    <mxGraphModel dx="1434" dy="746" grid="1" gridSize="10" guides="1" tooltips="1" connect="1" arrows="1" fold="1" page="1" pageScale="1" pageWidth="850" pageHeight="1100" math="0" shadow="0">
      <root>
        <mxCell id="0" />
        <mxCell id="1" parent="0" />
        <mxCell id="HXBWa4Z52gTGo2rOVxVv-3" value="Mobile Client" style="rounded=0;whiteSpace=wrap;html=1;" vertex="1" parent="1">
          <mxGeometry x="120" y="40" width="120" height="40" as="geometry" />
        </mxCell>
        <mxCell id="HXBWa4Z52gTGo2rOVxVv-4" value="Web Client" style="rounded=0;whiteSpace=wrap;html=1;" vertex="1" parent="1">
          <mxGeometry x="600" y="40" width="120" height="40" as="geometry" />
        </mxCell>
        <mxCell id="HXBWa4Z52gTGo2rOVxVv-12" style="edgeStyle=orthogonalEdgeStyle;rounded=0;orthogonalLoop=1;jettySize=auto;html=1;exitX=0.5;exitY=1;exitDx=0;exitDy=0;entryX=0.5;entryY=0;entryDx=0;entryDy=0;" edge="1" parent="1" source="HXBWa4Z52gTGo2rOVxVv-5" target="HXBWa4Z52gTGo2rOVxVv-11">
          <mxGeometry relative="1" as="geometry" />
        </mxCell>
        <mxCell id="HXBWa4Z52gTGo2rOVxVv-5" value="WAF" style="rounded=0;whiteSpace=wrap;html=1;" vertex="1" parent="1">
          <mxGeometry x="350" y="80" width="120" height="40" as="geometry" />
        </mxCell>
        <mxCell id="HXBWa4Z52gTGo2rOVxVv-8" style="edgeStyle=orthogonalEdgeStyle;rounded=0;orthogonalLoop=1;jettySize=auto;html=1;exitX=1;exitY=0.5;exitDx=0;exitDy=0;entryX=0.425;entryY=-0.025;entryDx=0;entryDy=0;entryPerimeter=0;" edge="1" parent="1" source="HXBWa4Z52gTGo2rOVxVv-3" target="HXBWa4Z52gTGo2rOVxVv-5">
          <mxGeometry relative="1" as="geometry" />
        </mxCell>
        <mxCell id="HXBWa4Z52gTGo2rOVxVv-10" style="edgeStyle=orthogonalEdgeStyle;rounded=0;orthogonalLoop=1;jettySize=auto;html=1;exitX=0;exitY=0.5;exitDx=0;exitDy=0;entryX=0.558;entryY=0;entryDx=0;entryDy=0;entryPerimeter=0;" edge="1" parent="1" source="HXBWa4Z52gTGo2rOVxVv-4" target="HXBWa4Z52gTGo2rOVxVv-5">
          <mxGeometry relative="1" as="geometry" />
        </mxCell>
        <mxCell id="HXBWa4Z52gTGo2rOVxVv-17" style="edgeStyle=orthogonalEdgeStyle;rounded=0;orthogonalLoop=1;jettySize=auto;html=1;exitX=0.5;exitY=1;exitDx=0;exitDy=0;entryX=0.5;entryY=0;entryDx=0;entryDy=0;" edge="1" parent="1" source="HXBWa4Z52gTGo2rOVxVv-11" target="HXBWa4Z52gTGo2rOVxVv-16">
          <mxGeometry relative="1" as="geometry" />
        </mxCell>
        <mxCell id="HXBWa4Z52gTGo2rOVxVv-11" value="Application ALB" style="rounded=0;whiteSpace=wrap;html=1;" vertex="1" parent="1">
          <mxGeometry x="350" y="150" width="120" height="30" as="geometry" />
        </mxCell>
        <mxCell id="HXBWa4Z52gTGo2rOVxVv-13" value="API LB" style="rounded=0;whiteSpace=wrap;html=1;" vertex="1" parent="1">
          <mxGeometry x="160" y="280" width="80" height="40" as="geometry" />
        </mxCell>
        <mxCell id="HXBWa4Z52gTGo2rOVxVv-34" value="" style="edgeStyle=orthogonalEdgeStyle;rounded=0;orthogonalLoop=1;jettySize=auto;html=1;" edge="1" parent="1" source="HXBWa4Z52gTGo2rOVxVv-14" target="HXBWa4Z52gTGo2rOVxVv-32">
          <mxGeometry relative="1" as="geometry" />
        </mxCell>
        <mxCell id="HXBWa4Z52gTGo2rOVxVv-14" value="Packaging Service LB" style="rounded=0;whiteSpace=wrap;html=1;" vertex="1" parent="1">
          <mxGeometry x="280" y="280" width="80" height="40" as="geometry" />
        </mxCell>
        <mxCell id="HXBWa4Z52gTGo2rOVxVv-35" style="edgeStyle=orthogonalEdgeStyle;rounded=0;orthogonalLoop=1;jettySize=auto;html=1;entryX=0.5;entryY=0;entryDx=0;entryDy=0;" edge="1" parent="1" source="HXBWa4Z52gTGo2rOVxVv-15" target="HXBWa4Z52gTGo2rOVxVv-33">
          <mxGeometry relative="1" as="geometry" />
        </mxCell>
        <mxCell id="HXBWa4Z52gTGo2rOVxVv-15" value="Approval Services LB" style="rounded=0;whiteSpace=wrap;html=1;" vertex="1" parent="1">
          <mxGeometry x="400" y="280" width="80" height="40" as="geometry" />
        </mxCell>
        <mxCell id="HXBWa4Z52gTGo2rOVxVv-40" style="edgeStyle=orthogonalEdgeStyle;rounded=0;orthogonalLoop=1;jettySize=auto;html=1;entryX=0.5;entryY=0;entryDx=0;entryDy=0;" edge="1" parent="1" source="HXBWa4Z52gTGo2rOVxVv-16" target="HXBWa4Z52gTGo2rOVxVv-39">
          <mxGeometry relative="1" as="geometry" />
        </mxCell>
        <mxCell id="HXBWa4Z52gTGo2rOVxVv-16" value="App Servers" style="rounded=0;whiteSpace=wrap;html=1;" vertex="1" parent="1">
          <mxGeometry x="350" y="200" width="120" height="40" as="geometry" />
        </mxCell>
        <mxCell id="HXBWa4Z52gTGo2rOVxVv-18" style="edgeStyle=orthogonalEdgeStyle;rounded=0;orthogonalLoop=1;jettySize=auto;html=1;exitX=0;exitY=0.5;exitDx=0;exitDy=0;entryX=0.417;entryY=0;entryDx=0;entryDy=0;entryPerimeter=0;" edge="1" parent="1" source="HXBWa4Z52gTGo2rOVxVv-16" target="HXBWa4Z52gTGo2rOVxVv-13">
          <mxGeometry relative="1" as="geometry" />
        </mxCell>
        <mxCell id="HXBWa4Z52gTGo2rOVxVv-19" style="edgeStyle=orthogonalEdgeStyle;rounded=0;orthogonalLoop=1;jettySize=auto;html=1;exitX=0;exitY=0.75;exitDx=0;exitDy=0;entryX=0.308;entryY=-0.05;entryDx=0;entryDy=0;entryPerimeter=0;" edge="1" parent="1" source="HXBWa4Z52gTGo2rOVxVv-16" target="HXBWa4Z52gTGo2rOVxVv-14">
          <mxGeometry relative="1" as="geometry" />
        </mxCell>
        <mxCell id="HXBWa4Z52gTGo2rOVxVv-20" style="edgeStyle=orthogonalEdgeStyle;rounded=0;orthogonalLoop=1;jettySize=auto;html=1;exitX=1;exitY=0.75;exitDx=0;exitDy=0;entryX=0.433;entryY=-0.05;entryDx=0;entryDy=0;entryPerimeter=0;" edge="1" parent="1" source="HXBWa4Z52gTGo2rOVxVv-16" target="HXBWa4Z52gTGo2rOVxVv-15">
          <mxGeometry relative="1" as="geometry" />
        </mxCell>
        <mxCell id="HXBWa4Z52gTGo2rOVxVv-23" style="edgeStyle=orthogonalEdgeStyle;rounded=0;orthogonalLoop=1;jettySize=auto;html=1;exitX=0;exitY=0.5;exitDx=0;exitDy=0;entryX=1;entryY=0.5;entryDx=0;entryDy=0;" edge="1" parent="1" source="HXBWa4Z52gTGo2rOVxVv-21" target="HXBWa4Z52gTGo2rOVxVv-22">
          <mxGeometry relative="1" as="geometry" />
        </mxCell>
        <mxCell id="HXBWa4Z52gTGo2rOVxVv-21" value="API Services" style="rounded=0;whiteSpace=wrap;html=1;" vertex="1" parent="1">
          <mxGeometry x="160" y="360" width="80" height="40" as="geometry" />
        </mxCell>
        <mxCell id="HXBWa4Z52gTGo2rOVxVv-25" style="edgeStyle=orthogonalEdgeStyle;rounded=0;orthogonalLoop=1;jettySize=auto;html=1;exitX=0.5;exitY=0;exitDx=0;exitDy=0;" edge="1" parent="1" source="HXBWa4Z52gTGo2rOVxVv-22">
          <mxGeometry relative="1" as="geometry">
            <mxPoint x="95" y="250" as="targetPoint" />
          </mxGeometry>
        </mxCell>
        <mxCell id="HXBWa4Z52gTGo2rOVxVv-22" value="NAT Gateway" style="rounded=0;whiteSpace=wrap;html=1;" vertex="1" parent="1">
          <mxGeometry x="70" y="360" width="50" height="40" as="geometry" />
        </mxCell>
        <mxCell id="HXBWa4Z52gTGo2rOVxVv-24" value="External Vendor&amp;nbsp; &amp;nbsp;(Flight &amp;amp; Hotel Aggregator)" style="rounded=0;whiteSpace=wrap;html=1;" vertex="1" parent="1">
          <mxGeometry x="40" y="180" width="100" height="60" as="geometry" />
        </mxCell>
        <mxCell id="HXBWa4Z52gTGo2rOVxVv-26" style="edgeStyle=orthogonalEdgeStyle;rounded=0;orthogonalLoop=1;jettySize=auto;html=1;exitX=0.5;exitY=1;exitDx=0;exitDy=0;entryX=0.425;entryY=-0.05;entryDx=0;entryDy=0;entryPerimeter=0;" edge="1" parent="1" source="HXBWa4Z52gTGo2rOVxVv-13" target="HXBWa4Z52gTGo2rOVxVv-21">
          <mxGeometry relative="1" as="geometry" />
        </mxCell>
        <mxCell id="HXBWa4Z52gTGo2rOVxVv-27" value="" style="rounded=0;whiteSpace=wrap;html=1;" vertex="1" parent="1">
          <mxGeometry x="200" y="480" width="320" height="120" as="geometry" />
        </mxCell>
        <mxCell id="HXBWa4Z52gTGo2rOVxVv-28" value="" style="image;html=1;image=img/lib/clip_art/computers/Database_128x128.png" vertex="1" parent="1">
          <mxGeometry x="200" y="500" width="80" height="80" as="geometry" />
        </mxCell>
        <mxCell id="HXBWa4Z52gTGo2rOVxVv-30" value="" style="image;aspect=fixed;html=1;points=[];align=center;fontSize=12;image=img/lib/azure2/databases/Cache_Redis.svg;" vertex="1" parent="1">
          <mxGeometry x="288" y="500" width="64" height="52" as="geometry" />
        </mxCell>
        <mxCell id="HXBWa4Z52gTGo2rOVxVv-31" value="" style="sketch=0;outlineConnect=0;fontColor=#232F3E;gradientColor=none;fillColor=#7AA116;strokeColor=none;dashed=0;verticalLabelPosition=bottom;verticalAlign=top;align=center;html=1;fontSize=12;fontStyle=0;aspect=fixed;pointerEvents=1;shape=mxgraph.aws4.bucket;" vertex="1" parent="1">
          <mxGeometry x="395" y="502" width="75" height="78" as="geometry" />
        </mxCell>
        <mxCell id="HXBWa4Z52gTGo2rOVxVv-32" value="Services" style="rounded=0;whiteSpace=wrap;html=1;" vertex="1" parent="1">
          <mxGeometry x="280" y="360" width="80" height="40" as="geometry" />
        </mxCell>
        <mxCell id="HXBWa4Z52gTGo2rOVxVv-33" value="Services" style="rounded=0;whiteSpace=wrap;html=1;" vertex="1" parent="1">
          <mxGeometry x="395" y="360" width="85" height="40" as="geometry" />
        </mxCell>
        <mxCell id="HXBWa4Z52gTGo2rOVxVv-36" style="edgeStyle=orthogonalEdgeStyle;rounded=0;orthogonalLoop=1;jettySize=auto;html=1;exitX=0.5;exitY=1;exitDx=0;exitDy=0;entryX=0.313;entryY=-0.017;entryDx=0;entryDy=0;entryPerimeter=0;" edge="1" parent="1" source="HXBWa4Z52gTGo2rOVxVv-21" target="HXBWa4Z52gTGo2rOVxVv-27">
          <mxGeometry relative="1" as="geometry" />
        </mxCell>
        <mxCell id="HXBWa4Z52gTGo2rOVxVv-37" style="edgeStyle=orthogonalEdgeStyle;rounded=0;orthogonalLoop=1;jettySize=auto;html=1;exitX=0.5;exitY=1;exitDx=0;exitDy=0;entryX=0.372;entryY=-0.033;entryDx=0;entryDy=0;entryPerimeter=0;" edge="1" parent="1" source="HXBWa4Z52gTGo2rOVxVv-32" target="HXBWa4Z52gTGo2rOVxVv-27">
          <mxGeometry relative="1" as="geometry" />
        </mxCell>
        <mxCell id="HXBWa4Z52gTGo2rOVxVv-38" style="edgeStyle=orthogonalEdgeStyle;rounded=0;orthogonalLoop=1;jettySize=auto;html=1;exitX=0.5;exitY=1;exitDx=0;exitDy=0;entryX=0.481;entryY=-0.025;entryDx=0;entryDy=0;entryPerimeter=0;" edge="1" parent="1" source="HXBWa4Z52gTGo2rOVxVv-33" target="HXBWa4Z52gTGo2rOVxVv-27">
          <mxGeometry relative="1" as="geometry" />
        </mxCell>
        <mxCell id="HXBWa4Z52gTGo2rOVxVv-44" style="edgeStyle=orthogonalEdgeStyle;rounded=0;orthogonalLoop=1;jettySize=auto;html=1;entryX=0.5;entryY=0;entryDx=0;entryDy=0;" edge="1" parent="1" source="HXBWa4Z52gTGo2rOVxVv-39" target="HXBWa4Z52gTGo2rOVxVv-41">
          <mxGeometry relative="1" as="geometry" />
        </mxCell>
        <mxCell id="HXBWa4Z52gTGo2rOVxVv-39" value="Payment ALB" style="rounded=0;whiteSpace=wrap;html=1;" vertex="1" parent="1">
          <mxGeometry x="640" y="280" width="80" height="40" as="geometry" />
        </mxCell>
        <mxCell id="HXBWa4Z52gTGo2rOVxVv-43" style="edgeStyle=orthogonalEdgeStyle;rounded=0;orthogonalLoop=1;jettySize=auto;html=1;" edge="1" parent="1" source="HXBWa4Z52gTGo2rOVxVv-41">
          <mxGeometry relative="1" as="geometry">
            <mxPoint x="680" y="480" as="targetPoint" />
          </mxGeometry>
        </mxCell>
        <mxCell id="HXBWa4Z52gTGo2rOVxVv-48" style="edgeStyle=orthogonalEdgeStyle;rounded=0;orthogonalLoop=1;jettySize=auto;html=1;entryX=0;entryY=0.5;entryDx=0;entryDy=0;" edge="1" parent="1" source="HXBWa4Z52gTGo2rOVxVv-41" target="HXBWa4Z52gTGo2rOVxVv-46">
          <mxGeometry relative="1" as="geometry" />
        </mxCell>
        <mxCell id="HXBWa4Z52gTGo2rOVxVv-41" value="Payment Services" style="rounded=0;whiteSpace=wrap;html=1;" vertex="1" parent="1">
          <mxGeometry x="640" y="360" width="80" height="40" as="geometry" />
        </mxCell>
        <mxCell id="HXBWa4Z52gTGo2rOVxVv-42" value="" style="image;html=1;image=img/lib/clip_art/computers/Database_128x128.png" vertex="1" parent="1">
          <mxGeometry x="640" y="486" width="80" height="80" as="geometry" />
        </mxCell>
        <mxCell id="HXBWa4Z52gTGo2rOVxVv-45" style="edgeStyle=orthogonalEdgeStyle;rounded=0;orthogonalLoop=1;jettySize=auto;html=1;exitX=0.5;exitY=0;exitDx=0;exitDy=0;" edge="1" parent="1" source="HXBWa4Z52gTGo2rOVxVv-46">
          <mxGeometry relative="1" as="geometry">
            <mxPoint x="785" y="250" as="targetPoint" />
          </mxGeometry>
        </mxCell>
        <mxCell id="HXBWa4Z52gTGo2rOVxVv-46" value="NAT Gateway" style="rounded=0;whiteSpace=wrap;html=1;" vertex="1" parent="1">
          <mxGeometry x="760" y="360" width="50" height="40" as="geometry" />
        </mxCell>
        <mxCell id="HXBWa4Z52gTGo2rOVxVv-47" value="Payment Gateways" style="rounded=0;whiteSpace=wrap;html=1;" vertex="1" parent="1">
          <mxGeometry x="730" y="200" width="100" height="40" as="geometry" />
        </mxCell>
        <mxCell id="HXBWa4Z52gTGo2rOVxVv-49" value="Payment DB&lt;div&gt;&lt;br&gt;&lt;/div&gt;" style="text;html=1;align=center;verticalAlign=middle;resizable=0;points=[];autosize=1;strokeColor=none;fillColor=none;" vertex="1" parent="1">
          <mxGeometry x="710" y="500" width="90" height="40" as="geometry" />
        </mxCell>
      </root>
    </mxGraphModel>
  </diagram>
</mxfile>
